# xmcd
#
# Track frame offsets:
#	150
#	12124
#	23800
#	39670
#	53174
#	66614
#	87235
#	105796
#	120763
#	136806
#	150290
#	159044
#	172079
#	185840
#	204221
#	217031
#	225310
#	241020
#
# Disc length: 3430 seconds
# Revision: 0
# Processed by: cddbd v1.5.2PL0 Copyright (c) Steve Scherf et al.
# Submitted via: dBpowerAMP V12.0
#
DISCID=d50d6412
DTITLE=Gina Forsyth - Copper Rooster
DYEAR=2016
DGENRE=Country
TTITLE0=Road To Columbus
TTITLE1=Carroll County Blues
TTITLE2=Copper Rooster
TTITLE3=Cherokee Shuffle (Shuffle Des Cherokis)
TTITLE4=Whiskey Before Breakfast
TTITLE5=Sparrows
TTITLE6=Dulcimer Blues (Port Allen Blues)
TTITLE7=Them Golden Slippers
TTITLE8=Over The Waterfall
TTITLE9=Rosin The Bow
TTITLE10=Down Yonder
TTITLE11=Don't Bury Me
TTITLE12=It's Moving Day
TTITLE13=St Ann's Reel
TTITLE14=Little Billy Wilson
TTITLE15=Eighth Of January
TTITLE16=In Dreams I Go Back Home
TTITLE17=Jerusalem Ridge
EXTD=
EXTT0=
EXTT1=
EXTT2=
EXTT3=
EXTT4=
EXTT5=
EXTT6=
EXTT7=
EXTT8=
EXTT9=
EXTT10=
EXTT11=
EXTT12=
EXTT13=
EXTT14=
EXTT15=
EXTT16=
EXTT17=
PLAYORDER=
